<svg width="93" height="24" viewBox="0 0 93 24" fill="none" xmlns="http://www.w3.org/2000/svg">
<path d="M82.3816 11.9998H75.3541L83.6129 0.5H74.3282C73.574 0.503256 72.8315 0.682638 72.1624 1.02327C71.4933 1.36391 70.9169 1.85567 70.481 2.45823L65.2487 9.73992L60.0166 2.45823C59.5808 1.85567 59.0043 1.36391 58.3352 1.02327C57.6661 0.682638 56.9236 0.503256 56.1694 0.5H46.5255L47.2436 1.50437L53.5532 10.0915C53.9855 10.6821 54.5552 11.1632 55.2154 11.4951C55.8755 11.827 56.607 12 57.3491 11.9998H63.556L56.3745 21.9934C56.3153 22.0639 56.2409 22.1207 56.1566 22.1597C56.0724 22.1987 55.9803 22.2185 55.8871 22.2185C55.7939 22.2185 55.7019 22.1987 55.6176 22.1597C55.5334 22.1207 55.4591 22.0639 55.3999 21.9934L54.2713 20.3864L41.3959 2.45823C40.9601 1.85567 40.3836 1.36391 39.7145 1.02327C39.0454 0.682638 38.3029 0.503256 37.5487 0.5H28.264L43.3453 21.5413C43.7812 22.1438 44.3576 22.6361 45.0267 22.9767C45.6959 23.3174 46.4384 23.4967 47.1926 23.5H64.6333C65.3875 23.4967 66.13 23.3174 66.7991 22.9767C67.4682 22.6361 68.0446 22.1438 68.4805 21.5413L74.0204 13.8079L79.7143 21.5918C80.1465 22.1824 80.7163 22.6635 81.3764 22.9954C82.0366 23.3272 82.7681 23.5002 83.5102 23.5H93L86.1264 13.9585C85.7205 13.3504 85.1645 12.8521 84.5101 12.5098C83.8556 12.1675 83.1236 11.992 82.3816 11.9998Z" fill="#F2F2F2"/>
<path d="M22.6214 2.45823C22.1856 1.85567 21.6092 1.36391 20.94 1.02327C20.2709 0.682638 19.5284 0.503256 18.7742 0.5H9.48981L17.7483 11.9998H10.7209C9.96669 12.003 9.22418 12.1824 8.55505 12.523C7.88593 12.8637 7.3095 13.3559 6.87365 13.9585L0 23.5H9.48981C10.2319 23.5002 10.9634 23.3272 11.6236 22.9954C12.2837 22.6635 12.8535 22.1824 13.2857 21.5918L18.9796 13.8079L24.5195 21.5413C24.9554 22.1438 25.5318 22.6361 26.2009 22.9767C26.87 23.3174 27.6125 23.4967 28.3667 23.5H37.6514L22.6214 2.45823Z" fill="#F2F2F2"/>
</svg>
