<svg width="21" height="20" viewBox="0 0 21 20" fill="none" xmlns="http://www.w3.org/2000/svg">
<g clip-path="url(#clip0_899_26)">
<path d="M0.5 15.0001C0.5 15.5894 0.734126 16.1547 1.15087 16.5714C1.56762 16.9882 2.13285 17.2223 2.72222 17.2223H18.2778C18.8671 17.2223 19.4324 16.9882 19.8491 16.5714C20.2659 16.1547 20.5 15.5894 20.5 15.0001V12.7778H0.5V15.0001Z" fill="#FFCD05"/>
<path d="M0.5 7.77783H20.5V12.7778H0.5V7.77783Z" fill="#ED1F24"/>
<path d="M18.2778 2.77783H2.72222C2.13285 2.77783 1.56762 3.01196 1.15087 3.42871C0.734126 3.84545 0.5 4.41068 0.5 5.00005L0.5 7.77783H20.5V5.00005C20.5 4.41068 20.2659 3.84545 19.8491 3.42871C19.4324 3.01196 18.8671 2.77783 18.2778 2.77783Z" fill="#141414"/>
</g>
<defs>
<clipPath id="clip0_899_26">
<rect width="20" height="20" fill="white" transform="translate(0.5)"/>
</clipPath>
</defs>
</svg>
