<svg width="21" height="16" viewBox="0 0 21 16" fill="none" xmlns="http://www.w3.org/2000/svg">
<path d="M10.5001 2.06C12.8213 2.06 14.9076 2.86125 16.3126 4.3025C17.4682 4.45428 18.5585 4.92622 19.4601 5.665C17.8838 2.3525 14.6188 0.5 10.5001 0.5C6.43755 0.5 3.15005 2.35 1.55505 5.6525C2.38159 4.97939 3.36655 4.52887 4.4163 4.34375C5.79505 2.84 7.96755 2.06 10.5001 2.06Z" fill="#9D9DA3"/>
<path d="M10.5001 2.06C12.8213 2.06 14.9076 2.86125 16.3126 4.3025C17.4682 4.45428 18.5585 4.92622 19.4601 5.665C17.8838 2.3525 14.6188 0.5 10.5001 0.5C6.43755 0.5 3.15005 2.35 1.55505 5.6525C2.38159 4.97939 3.36655 4.52887 4.4163 4.34375C5.79505 2.84 7.96755 2.06 10.5001 2.06Z" fill="black" fill-opacity="0.2"/>
<path d="M15.5001 15.5C14.1997 15.4999 12.9505 14.9933 12.0175 14.0875L12.015 14.085C11.9074 14.004 11.7918 13.934 11.67 13.8763C11.3032 13.7076 10.9038 13.6219 10.5001 13.625C9.98255 13.625 9.5888 13.7537 9.3313 13.8763C9.20913 13.934 9.09312 14.0039 8.98505 14.085L8.98255 14.0875C8.39482 14.6581 7.67591 15.0755 6.88903 15.3031C6.10215 15.5307 5.2714 15.5615 4.46983 15.3928C3.66826 15.224 2.92042 14.861 2.29207 14.3355C1.66372 13.81 1.1741 13.1381 0.866264 12.379C0.558428 11.6199 0.441806 10.7968 0.526651 9.98211C0.611495 9.16738 0.895209 8.38597 1.35284 7.70659C1.81048 7.02722 2.42802 6.47068 3.15117 6.08592C3.87431 5.70115 4.68091 5.49995 5.50005 5.5H15.5001C16.8261 5.5 18.0979 6.02678 19.0356 6.96447C19.9733 7.90215 20.5001 9.17392 20.5001 10.5C20.5001 11.8261 19.9733 13.0979 19.0356 14.0355C18.0979 14.9732 16.8261 15.5 15.5001 15.5Z" fill="#F2F2F2"/>
</svg>
